<svg width="45" height="40" viewBox="0 0 45 40" fill="none" xmlns="http://www.w3.org/2000/svg">
<path fill-rule="evenodd" clip-rule="evenodd" d="M29.0212 23.028L31.9732 16.728C31.4452 16.488 31.0252 16.248 30.7132 16.008C30.4012 15.768 30.2452 15.456 30.2452 15.072C30.2452 14.376 30.4612 13.908 30.8932 13.668C31.3492 13.404 32.0092 13.272 32.8732 13.272C33.6892 13.272 34.5292 13.308 35.3932 13.38C36.2572 13.428 36.9772 13.488 37.5532 13.56L38.4532 13.668L39.1732 7.87199L38.2012 7.69199C37.5532 7.54799 36.6892 7.41599 35.6092 7.29599C34.5292 7.17599 33.3292 7.11599 32.0092 7.11599C28.8172 7.13999 26.5252 7.81199 25.1332 9.13199C23.7652 10.428 23.0812 12.396 23.0812 15.036C23.0812 17.1 23.4652 18.672 24.2332 19.752C25.0012 20.832 26.0932 21.696 27.5092 22.344L29.0212 23.028Z" fill="#60646C"/>
<path fill-rule="evenodd" clip-rule="evenodd" d="M13.8652 15H6.84523V33.36H13.8652V23.856H18.7612L19.8412 18.096H13.8652V15Z" fill="#60646C"/>
<path d="M7.16923 13.2L4.86523 7.43999H21.5692L20.4892 13.2H7.16923Z" fill="#5B5BD6"/>
<path d="M30.6772 23.82L33.6652 17.448L35.2132 18.132C36.8452 18.852 38.0332 19.752 38.7772 20.832C39.5212 21.888 39.8932 23.4 39.8932 25.368C39.8932 28.032 39.1972 30.084 37.8052 31.524C36.4132 32.964 34.1212 33.696 30.9292 33.72C29.3452 33.72 27.8692 33.612 26.5012 33.396C25.1332 33.204 23.9212 32.976 22.8652 32.712L23.5852 26.916L24.4492 27.06C25.0492 27.156 25.8412 27.252 26.8252 27.348C27.8092 27.444 28.8892 27.492 30.0652 27.492C30.9772 27.492 31.6612 27.36 32.1172 27.096C32.5732 26.832 32.8012 26.4 32.8012 25.8C32.8012 25.392 32.6932 25.068 32.4772 24.828C32.2612 24.588 31.8772 24.348 31.3252 24.108L30.6772 23.82Z" fill="#5B5BD6"/>
</svg>
